PathFileType	4	(X/Y/Z)	RBDS011\RBDS011runT25.trc
DataRate	CameraRate	NumFrames	NumMarkers	Units	OrigDataRate	OrigDataStartFrame	OrigNumFrames
150.000000	150.000000	4	33	mm	150.000000	3937	4500
Frame#	Time	L.ASIS			L.Heel.Bottom			L.Heel.Lateral			L.Heel.Top			L.Iliac.Crest			L.MT1			L.MT5			L.PSIS			L.Shank.Bottom.Lateral			L.Shank.Bottom.Medial			L.Shank.Top.Lateral			L.Shank.Top.Medial			L.Thigh.Bottom.Lateral			L.Thigh.Bottom.Medial			L.Thigh.Top.Lateral			L.Thigh.Top.Medial			R.ASIS			R.ASY			R.Heel.Bottom			R.Heel.Lateral			R.Heel.Top			R.Iliac.Crest			R.MT1			R.MT5			R.PSIS			R.Shank.Bottom.Lateral			R.Shank.Bottom.Medial			R.Shank.Top.Lateral			R.Shank.Top.Medial			R.Thigh.Bottom.Lateral			R.Thigh.Bottom.Medial			R.Thigh.Top.Lateral			R.Thigh.Top.Medial			
		X1	Y1	Z1	X2	Y2	Z2	X3	Y3	Z3	X4	Y4	Z4	X5	Y5	Z5	X6	Y6	Z6	X7	Y7	Z7	X8	Y8	Z8	X9	Y9	Z9	X10	Y10	Z10	X11	Y11	Z11	X12	Y12	Z12	X13	Y13	Z13	X14	Y14	Z14	X15	Y15	Z15	X16	Y16	Z16	X17	Y17	Z17	X18	Y18	Z18	X19	Y19	Z19	X20	Y20	Z20	X21	Y21	Z21	X22	Y22	Z22	X23	Y23	Z23	X24	Y24	Z24	X25	Y25	Z25	X26	Y26	Z26	X27	Y27	Z27	X28	Y28	Z28	X29	Y29	Z29	X30	Y30	Z30	X31	Y31	Z31	X32	Y32	Z32	X33	Y33	Z33	

3938	26.24666666666667	2230.592541288745	1026.340485615211	917.6451682024508	2287.149329899466	43.77639861475405	990.0912916515346	2310.384034156317	58.80865774047714	950.0385943046742	2285.927947087064	93.10306199350318	986.3559673943682	2171.143029662226	1110.158764264723	877.5973206768134	2501.987515880217	108.2715356293804	1036.141185952584	2481.322781635259	82.5928691767291	924.5593917116287	2063.955010625556	1069.359839284584	976.8962398327636	2325.284815892707	204.9220696886632	927.326673599802	2288.488234939754	204.5253061450076	968.3567108493507	2306.500599692978	281.639023122546	911.7488003810003	2270.887073902051	282.1767576654876	952.7116175299192	2276.067849175859	652.8830159640418	872.4001172189112	2219.761931282429	626.4103399178308	909.910458875979	2219.447086918695	746.5479160951487	858.1669516074218	2166.646326956884	722.3600845849302	894.1720450038824	2215.671409008733	1013.597109898568	1162.314677103728	1742.11410367683	154.8724667331492	1112.173400610377	1594.288884996437	275.5705699051812	1099.367720148355	1619.985257750029	261.8234523527595	1142.400988496115	1641.431719811961	293.2015253292141	1105.464692145296	2182.997376880653	1086.275585949111	1188.125392168219	1724.442074301264	94.82348418111036	1055.836057594945	1694.247190181705	104.3854720705534	1169.663562278274	2059.348897685267	1072.761907551466	1080.216487216421	1723.577666802813	307.8228363385818	1158.39195965967	1706.940973652144	334.9589862771984	1118.324066442675	1780.360835720262	369.2866601674859	1174.218449100997	1757.144367031274	396.2653623583483	1134.308148060088	2017.922188433869	657.9504428829417	1191.758247678066	1967.483581561357	677.7001448184334	1141.64428012663	2041.866118777221	763.8702268726767	1206.099309681941	1993.450971980915	783.8197763325092	1160.866057983636	
3939	26.25333333333333	2231.498592209868	1024.60187944489	917.6111334144464	2289.329479615323	41.57397540601609	990.4300335367011	2312.178154917928	56.46291598633192	950.1219885412776	2288.049997301617	90.83739222078049	986.4680572367964	2172.613592644643	1108.139905760548	877.1802956066505	2504.336820471813	106.5222889707627	1034.382254077155	2482.74009652226	80.45019272553463	923.0068051909651	2064.687806653332	1067.505744199776	976.4633103291487	2326.335420015928	202.6036906100363	926.8090561120842	2289.845567682653	201.8774956944684	968.1693580464514	2306.907006973127	279.2176348399583	911.4281039287946	2271.567780414487	279.4328841886611	952.6668055268007	2275.470067255711	650.4574630442228	872.1129700769314	2219.06417867424	624.3728182907784	909.8061058387846	2219.2511272247	744.3873374387622	857.7755759732744	2166.474792109678	720.5847951255962	894.0439745911279	2216.562217059037	1012.393886740374	1162.199671964221	1733.595989552588	161.7763783926483	1113.403922721528	1590.202770540797	287.6435224345345	1098.361752760633	1614.898752706654	273.1115714765723	1141.775804247506	1637.944120479891	303.5681218275791	1104.955658073809	2182.974121494567	1084.902681233566	1188.192877847989	1714.598289167833	102.0131262929601	1057.060794603383	1683.438714689811	113.035200975243	1170.413966938315	2059.955005151838	1071.04539351755	1079.892882118279	1720.45430861779	314.8026814525556	1158.597821682283	1704.770397112253	342.5000539964407	1118.533034350856	1779.453003082	374.0988989482888	1174.334249823376	1757.204894614071	401.8869153236139	1134.48208052446	2022.994828750702	654.5029741170285	1191.569200490896	1971.691916659745	674.1110549570418	1142.114318581492	2046.027429034022	760.559591458713	1206.308042431703	1996.811855261299	780.3455570216494	1161.772353213292	
3940	26.26	2232.320669291233	1022.51514597399	917.4497584175206	2288.571605731807	39.59186738047567	990.5935767437705	2311.190191439103	54.18087491770174	950.0930416815837	2287.645049727119	88.77808173558228	986.4798955738946	2173.844446644224	1105.627864221883	876.7122544727247	2504.08366998363	103.2086334341473	1032.827505781439	2481.558043654266	77.14575713338407	921.5576569107253	2065.338410685436	1065.033375913555	976.1142558140409	2325.702950777408	199.9208607444277	926.228704264498	2289.439122584709	199.0987971110126	967.8387564924931	2306.142735939363	276.5457346198617	911.0115948868579	2270.991592456779	276.6574357012305	952.4396703758765	2275.174460913803	647.9098470391245	872.0075401685282	2218.622717230593	622.0465917026086	909.690177258694	2219.231714000107	742.0231827621935	857.6025516917689	2166.407328078812	718.4464901833402	893.9303601969789	2217.478210144973	1010.780788396139	1162.056567801819	1725.864043954434	169.133224297387	1114.501993346197	1586.75404810694	299.7011901669198	1097.299892709692	1610.541454310221	284.5024819658589	1141.048371103282	1635.004965835237	313.9786080182926	1104.262748328393	2182.839928062497	1083.067177667265	1188.341285281054	1705.523571955	109.6724422368292	1058.197763647428	1673.64703344749	122.2548652337341	1171.207741350049	2060.537488441906	1068.730112207223	1079.643597924455	1717.964647575307	321.9532054702026	1158.617173021121	1703.35964764314	350.2228965032393	1118.533030084081	1779.178119239959	378.8998608279678	1174.337124747053	1758.073142993277	407.4939415810139	1134.486073880546	2028.626591272897	650.2849414685204	1191.511813316028	1976.548349093531	669.5730971941517	1142.574966654289	2050.487188342674	756.5340925712001	1206.566804483626	2000.503865250458	776.0042684755313	1162.642519810995	
3941	26.26666666666667	2233.050132837302	1020.100253018794	917.1578080413359	2284.995354829988	37.79280892508501	990.5774981912318	2307.554840872026	51.96871953864893	949.9667539829865	2284.799470721169	86.8938574089855	986.4187696425147	2174.805451219129	1102.650257378073	876.2088017782474	2501.289021250772	98.43953373128591	1031.648577008323	2477.93663212368	72.85121302809326	920.3507930614167	2065.9031014656	1061.957742689029	975.8750365095503	2323.481609599192	196.8572166442023	925.6513575313477	2287.325089071255	196.1828319762288	967.3899979290428	2304.29851361491	273.6009812886059	910.5274466135733	2269.216713169652	273.8381272405914	952.0271841530002	2275.166087392464	645.2274074835717	872.0487312519793	2218.420287415952	619.4205315512553	909.5271788219799	2219.390143784936	739.4518242847333	857.6237208174028	2166.432112754253	715.9406367647364	893.7955526648188	2218.410991745903	1008.751197282365	1161.889394903373	1719.029656805759	176.885227375236	1115.434394461263	1584.060110693283	311.7225192640681	1096.2882948912	1607.068067613474	295.9637240679477	1140.297273981202	1632.746105171318	324.4002927588729	1103.451414301912	2182.619462190149	1080.790179480601	1188.560905800571	1697.27570245675	117.7353348944687	1059.240009560668	1665.024804626441	131.9626212841195	1172.03409235839	2061.104797270965	1065.812232644782	1079.491047470524	1716.205591488201	329.2151179056901	1158.470401157636	1702.779482620691	358.0537367579878	1118.351529620658	1779.595080395223	383.6611855425623	1174.235520066763	1759.773282146082	413.0385650413401	1134.339646635343	2034.684564610005	645.3693729249209	1191.57514262183	1981.982572355483	664.1586408653968	1142.963538825087	2055.131197671848	751.8569285663046	1206.85377288552	2004.468466717955	770.8593128952232	1163.402941890277	
